Coordinates
version=1
nRows=24
nColumns=24
inDegrees=yes

Units are S.I. units (second, meters, Newtons, ...)
Angles are in degrees.

endheader
time	pelvis_tilt	pelvis_list	pelvis_rotation	pelvis_tx	pelvis_ty	pelvis_tz	hip_flexion_r	hip_adduction_r	hip_rotation_r	knee_angle_r	ankle_angle_r	subtalar_angle_r	mtp_angle_r	hip_flexion_l	hip_adduction_l	hip_rotation_l	knee_angle_l	ankle_angle_l	subtalar_angle_l	mtp_angle_l	lumbar_extension	lumbar_bending	lumbar_rotation
      0.46300000	     -2.18977540	      1.08465077	      4.14929685	     -0.75765577	      0.88820498	      0.31684038	     32.54427950	      0.22971690	     -3.40341440	    -19.98572882	      2.40459053	     -0.61989680	      0.52717395	    -14.80484138	      2.48245038	      0.78283308	     -6.01936237	     18.30038838	     -0.02217275	      1.59278475	     -6.98185204	     -2.10880011	     -9.15333560
      0.46716667	     -2.27790031	      1.11024851	      4.21340778	     -0.75199061	      0.88685866	      0.31708334	     32.62777454	      0.28718098	     -3.07919226	    -20.09997379	      2.43485538	     -0.87374428	      0.59491041	    -14.76585749	      2.45430953	      0.94943301	     -6.74022192	     18.61993306	     -0.07429056	      1.80336887	     -6.87734497	     -2.08036704	     -9.06389977
      0.47133333	     -2.36496057	      1.13780472	      4.26444470	     -0.74627754	      0.88554487	      0.31738901	     32.70466916	      0.35649305	     -2.74871861	    -20.29167368	      2.45260590	     -1.17613090	      1.81797177	    -14.63354657	      2.40765749	      0.77611400	     -7.64852932	     18.88057245	      0.28138229	      6.11153454	     -6.74250945	     -2.08061243	     -9.00309735
      0.47550000	     -2.45708535	      1.13654632	      4.32432224	     -0.74053853	      0.88430543	      0.31771421	     32.76472745	      0.46196627	     -2.41698333	    -20.51488526	      2.35403278	     -1.61055711	      1.80035174	    -14.51582608	      2.34134142	      0.84227387	     -8.52092000	     19.12015940	      0.32513306	      6.16029945	     -6.61209749	     -2.04542241	     -8.93324666
      0.47966667	     -2.55463421	      1.13757973	      4.37203283	     -0.73477059	      0.88307823	      0.31807023	     32.84972106	      0.57074708	     -2.10967673	    -20.85718781	      2.28070240	     -1.99968760	      1.79074210	    -14.35050373	      2.27320563	      0.80215245	     -9.48450120	     19.36778418	      0.53456389	      6.25045169	     -6.46914983	     -2.00771772	     -8.84419613
      0.48383333	     -2.64913895	      1.12945663	      4.41783838	     -0.72897435	      0.88190919	      0.31844986	     32.93212678	      0.69231229	     -1.82584956	    -21.26934034	      2.18693915	     -2.38133315	      1.78963893	    -14.15588326	      2.19269647	      0.75858683	    -10.51538468	     19.58187864	      0.74485039	      6.37190631	     -6.32724314	     -1.95807824	     -8.74875498
      0.48800000	     -2.70487961	      1.09252724	      4.44079425	     -0.72312276	      0.88084027	      0.31890435	     32.96200101	      0.86585493	     -1.53202106	    -21.71921735	      2.09605959	     -2.76283881	      1.80536963	    -13.96497841	      2.06904963	      0.58914492	    -11.62708841	     19.81038953	      1.11876817	      6.67066286	     -6.23147411	     -1.87591500	     -8.64035611
      0.49216667	     -2.80887069	      1.08227255	      4.48505167	     -0.71728296	      0.87976464	      0.31930067	     33.07024140	      0.98991908	     -1.30619859	    -22.28109814	      1.98361172	     -3.12537815	      1.81401818	    -13.73309807	      2.00006823	      0.69262316	    -12.71293643	     19.89626241	      1.08180025	      6.79946174	     -6.08311559	     -1.81575446	     -8.52762554
      0.49633333	     -2.86794149	      1.02248230	      4.49932012	     -0.71137292	      0.87880681	      0.31981424	     33.10587586	      1.19634269	     -1.05528528	    -22.83188452	      1.83743262	     -3.55354722	      1.86366108	    -13.46919254	      1.84212197	      0.45685913	    -13.96021524	     19.98692615	      1.49582864	      7.32966188	     -5.95990716	     -1.71008165	     -8.36774705
      0.50050000	     -2.86392060	      0.85470016	      4.47104415	     -0.70532007	      0.87780517	      0.32029848	     33.08938213	      1.51910954	     -0.89135492	    -23.44821392	      1.71418155	     -3.93351443	      2.18808318	    -13.60063001	      1.62018584	      0.48586978	    -14.61527378	     19.84837635	      1.34329147	     10.26760086	     -5.87729537	     -1.44747083	     -8.09226365
      0.50466667	     -2.94507476	      0.84381156	      4.47052243	     -0.69941184	      0.87695051	      0.32079933	     33.18532441	      1.67635102	     -0.66452948	    -24.15465246	      1.63860713	     -4.29432365	      2.18803914	    -13.30604800	      1.55696215	      0.53607914	    -15.87071801	     19.73808513	      1.23887030	     10.31502589	     -5.74838395	     -1.39011748	     -8.00407466
      0.50883333	     -3.03416045	      0.80521136	      4.47814500	     -0.69347233	      0.87615721	      0.32131810	     33.28356588	      1.85454984	     -0.48511624	    -24.87403687	      1.56388446	     -4.63679412	      2.19198570	    -12.94984333	      1.45237486	      0.52691244	    -17.23070767	     19.57659201	      1.25404225	     10.40846914	     -5.59145312	     -1.30099467	     -7.84084166
      0.51300000	     -3.07398306	      0.73168673	      4.46380043	     -0.68749975	      0.87548816	      0.32191009	     33.32089603	      2.08561033	     -0.31241619	    -25.59628910	      1.51257099	     -4.98342388	      2.21158163	    -12.58576753	      1.28192550	      0.32759080	    -18.70296238	     19.38011350	      1.54444354	     10.82647800	     -5.48783942	     -1.17541412	     -7.61404422
      0.51716667	     -3.14603620	      0.68233056	      4.46064505	     -0.68155619	      0.87484913	      0.32243382	     33.41051225	      2.27271617	     -0.17443005	    -26.37956980	      1.54138206	     -5.26358664	      2.21937269	    -12.18272057	      1.17707437	      0.35960373	    -20.17361907	     19.08542991	      1.39301483	     10.98431666	     -5.35018399	     -1.06088149	     -7.46422058
      0.52133333	     -3.21420641	      0.62438002	      4.44440770	     -0.67560783	      0.87427263	      0.32299736	     33.49558947	      2.47450846	     -0.04037217	    -27.17699392	      1.61655498	     -5.51999903	      2.22864155	    -11.73261457	      1.05240897	      0.30440825	    -21.73133836	     18.70410251	      1.36678828	     11.20039587	     -5.21758648	     -0.94271331	     -7.26895038
      0.52550000	     -3.20533108	      0.48202883	      4.45652365	     -0.66963312	      0.87391003	      0.32357851	     33.45046807	      2.75208682	      0.02435428	    -27.87900845	      1.60258789	     -5.87902595	      2.27209014	    -11.29186587	      0.78994946	      0.12048739	    -23.40645324	     18.25251665	      1.47923869	     16.14605234	     -5.17697744	     -0.72014289	     -7.04416694
      0.52966667	     -3.24181665	      0.43003679	      4.38604415	     -0.66367075	      0.87347894	      0.32419658	     33.51201594	      2.96757770	      0.17229162	    -28.73055676	      1.91413743	     -5.97955450	      2.28116950	    -10.82920922	      0.68261127	      0.01510549	    -25.03508734	     17.66377170	      1.32528813	     16.20366292	     -5.07608724	     -0.60024235	     -6.87741605
      0.53383333	     -3.27106436	      0.35217616	      4.35892897	     -0.65776254	      0.87313249	      0.32476525	     33.54758798	      3.17365131	      0.22506478	    -29.54067543	      2.13498449	     -6.08794356	      2.27980205	    -10.29344918	      0.52513659	     -0.10671378	    -26.80089112	     17.10208167	      1.26712239	     16.36514945	     -4.99148112	     -0.47368935	     -6.63560451
      0.53800000	     -3.20895582	      0.18674630	      4.28656140	     -0.65177646	      0.87297620	      0.32544879	     33.43800994	      3.50640998	      0.31111189	    -30.26058299	      2.43379070	     -6.21763750	      2.15075470	     -9.82910973	      0.23202487	     -0.42816150	    -28.60845906	     16.43024680	      1.38288741	     18.10565085	     -5.00952539	     -0.20761937	     -6.26754514
      0.54216667	     -3.23482043	      0.08140160	      4.28342781	     -0.64590187	      0.87278297	      0.32596014	     33.42968392	      3.71465908	      0.31198553	    -31.00496720	      2.76820072	     -6.30726800	      2.14788410	     -9.22689789	      0.04966755	     -0.47979086	    -30.45745752	     15.67458011	      1.13116306	     18.26279308	     -4.92856387	     -0.03327431	     -6.19046407
      0.54633333	     -3.19996644	     -0.06890874	      4.24169072	     -0.63999281	      0.87271398	      0.32654319	     33.32684247	      3.98944905	      0.31964743	    -31.69149480	      3.16233564	     -6.33693897	      2.13728901	     -8.66314371	     -0.20992746	     -0.68135189	    -32.34621268	     14.86809013	      1.01744758	     18.47811036	     -4.91447089	      0.20478781	     -5.98813349
      0.55050000	     -3.12024969	     -0.24917826	      4.19551225	     -0.63407825	      0.87279854	      0.32712260	     33.13387377	      4.29872207	      0.33315899	    -32.29940771	      3.60647006	     -6.38167626	      2.13503695	     -8.13193559	     -0.50457051	     -0.87392738	    -34.23831840	     13.94443350	      0.84030996	     18.60361986	     -4.96617155	      0.49979927	     -5.83010374
      0.55466667	     -3.06599871	     -0.44482163	      4.15150338	     -0.62821494	      0.87284635	      0.32771876	     32.96030921	      4.60411577	      0.27946281	    -32.87666259	      4.02120497	     -6.35440136	      2.10836974	     -7.50700518	     -0.85120255	     -1.17816481	    -36.23677020	     13.06102054	      0.77477220	     18.88257294	     -4.96542738	      0.78119070	     -5.56235902
      0.55883333	     -2.94992337	     -0.65168679	      4.10119435	     -0.62234033	      0.87309213	      0.32830614	     32.67076767	      4.93513203	      0.26724251	    -33.37001022	      4.52214609	     -6.37554873	      2.10323722	     -6.96219565	     -1.19717764	     -1.41148772	    -38.16985045	     12.02206774	      0.56103848	     19.00195248	     -5.05903684	      1.10527405	     -5.41790005
